# xmcd CD database file
# Copyright (C) 1993-1998 Ti Kan
# 
# Track frame offsets:
#     150
#     6820
#     15577
#     27022
#     38862
#     46877
#     58297
#     68187
#     78347
#     91825
#     98917
#     106795
#     115962
#     124147
#     136385
#     144277
#     159330
#     170527
#     178092
#     192312
#     201685
# 
# Disc length: 2830 seconds
# 
# Revision: 1
# Processed by: cddbd v1.4b41PL1 Copyright (c) Steve Scherf et al.
# Submitted via: DiscPlay 4.0.4
# 
DISCID=1c0b0c15
DTITLE=Jim Reeves - Making Believe
DYEAR=1900
DGENRE=
TTITLE0=Have I Told You lately That I Love You
TTITLE1=If You Were Only Mine
TTITLE2=I Love You more
TTITLE3=I've Lived A Lot In My Time
TTITLE4=Everywhere You Go
TTITLE5=If Heartache's Are The Fashion
TTITLE6=Home
TTITLE7=Dear Hearts And Gentle People
TTITLE8=How's The World Treating You
TTITLE9=I'm Beginning To Forget You
TTITLE10=Roly Poly
TTITLE11=The Wind Up
TTITLE12=Sweet Evening Breeze (Bring My Baby Back To Me)
TTITLE13=Your Old Love Letters
TTITLE14=Till The End Of The World
TTITLE15=Making Believe
TTITLE16=Just Call Me Lonesome
TTITLE17=The Oklahoma Hills Where I Was Born
TTITLE18=The Highway To Nowhere
TTITLE19=Beyond The Shadow Of A Doubt
TTITLE20=An Evening Prayer
EXTD=
EXTT0=
EXTT1=
EXTT2=
EXTT3=
EXTT4=
EXTT5=
EXTT6=
EXTT7=
EXTT8=
EXTT9=
EXTT10=
EXTT11=
EXTT12=
EXTT13=
EXTT14=
EXTT15=
EXTT16=
EXTT17=
EXTT18=
EXTT19=
EXTT20=
PLAYORDER=
